<svg width="617" height="229" viewBox="0 0 617 229" fill="none" xmlns="http://www.w3.org/2000/svg">
<path d="M256 29L244.473 41.9277L261.432 45.4466L256 29ZM124.748 228.3C125.603 227.808 126.482 227.288 127.382 226.741L125.823 224.178C124.943 224.713 124.085 225.221 123.252 225.7L124.748 228.3ZM132.585 223.422C134.217 222.335 135.904 221.17 137.641 219.927L135.895 217.488C134.185 218.711 132.525 219.857 130.922 220.925L132.585 223.422ZM142.596 216.268C144.181 215.062 145.8 213.797 147.447 212.474L145.568 210.135C143.941 211.442 142.344 212.691 140.779 213.881L142.596 216.268ZM152.195 208.562C153.725 207.271 155.275 205.931 156.843 204.545L154.856 202.298C153.305 203.669 151.772 204.993 150.259 206.27L152.195 208.562ZM161.396 200.429C162.872 199.066 164.359 197.663 165.857 196.219L163.776 194.059C162.293 195.488 160.82 196.877 159.361 198.225L161.396 200.429ZM170.229 191.92C171.651 190.492 173.08 189.03 174.513 187.532L172.346 185.458C170.927 186.941 169.512 188.389 168.104 189.802L170.229 191.92ZM178.712 183.06C180.082 181.572 181.454 180.053 182.827 178.503L180.581 176.514C179.22 178.05 177.861 179.554 176.505 181.028L178.712 183.06ZM186.856 173.863C188.171 172.32 189.486 170.747 190.798 169.146L188.478 167.244C187.178 168.83 185.875 170.388 184.573 171.918L186.856 173.863ZM194.634 164.376C195.887 162.786 197.138 161.17 198.384 159.528L195.994 157.714C194.76 159.342 193.52 160.943 192.278 162.518L194.634 164.376ZM202.049 154.602C203.248 152.959 204.441 151.291 205.628 149.599L203.171 147.877C201.996 149.553 200.813 151.206 199.626 152.834L202.049 154.602ZM209.096 144.553C210.229 142.87 211.355 141.165 212.473 139.437L209.953 137.808C208.846 139.52 207.731 141.21 206.608 142.877L209.096 144.553ZM215.76 134.248C216.832 132.519 217.895 130.769 218.948 128.998L216.37 127.464C215.326 129.22 214.273 130.954 213.21 132.666L215.76 134.248ZM222.027 123.705C223.033 121.938 224.029 120.15 225.014 118.342L222.379 116.907C221.403 118.699 220.417 120.47 219.42 122.221L222.027 123.705ZM227.903 112.913C228.838 111.113 229.762 109.295 230.674 107.456L227.986 106.123C227.083 107.944 226.168 109.746 225.241 111.529L227.903 112.913ZM233.349 101.932C234.219 100.089 235.077 98.2273 235.922 96.3471L233.185 95.1181C232.349 96.9806 231.499 98.8248 230.636 100.651L233.349 101.932ZM238.376 90.7399C239.174 88.8669 239.959 86.9762 240.729 85.0678L237.947 83.945C237.184 85.8353 236.407 87.7082 235.616 89.5636L238.376 90.7399ZM242.972 79.3504C243.696 77.4526 244.405 75.5379 245.099 73.6065L242.276 72.5921C241.588 74.5052 240.886 76.4017 240.169 78.2816L242.972 79.3504ZM247.122 67.8007C247.772 65.8749 248.407 63.9331 249.026 61.9752L246.165 61.0709C245.552 63.0103 244.923 64.9337 244.279 66.8412L247.122 67.8007ZM250.818 56.1091C251.395 54.1525 251.956 52.1804 252.5 50.1929L249.607 49.4003C249.067 51.369 248.512 53.3224 247.94 55.2605L250.818 56.1091ZM254.06 44.2758C254.56 42.2991 255.044 40.3076 255.511 38.3014L252.59 37.6213C252.127 39.6086 251.647 41.5812 251.152 43.5392L254.06 44.2758Z" fill="#CA0007"/>
<path d="M335 92L320.619 101.654L336.17 109.281L335 92ZM124.357 228.457C125.318 228.221 126.297 227.976 127.294 227.721L126.552 224.815C125.563 225.067 124.593 225.31 123.643 225.543L124.357 228.457ZM133.246 226.145C135.166 225.619 137.141 225.062 139.166 224.473L138.329 221.592C136.318 222.177 134.358 222.73 132.453 223.251L133.246 226.145ZM145.057 222.716C146.976 222.13 148.933 221.517 150.925 220.88L150.01 218.023C148.031 218.656 146.087 219.265 144.18 219.848L145.057 222.716ZM156.772 218.967C158.688 218.327 160.631 217.665 162.599 216.981L161.614 214.147C159.657 214.827 157.726 215.485 155.821 216.122L156.772 218.967ZM168.403 214.924C170.301 214.239 172.218 213.535 174.153 212.811L173.102 210.001C171.178 210.721 169.272 211.421 167.385 212.103L168.403 214.924ZM179.889 210.626C181.783 209.893 183.69 209.141 185.61 208.371L184.493 205.587C182.584 206.352 180.688 207.099 178.805 207.829L179.889 210.626ZM191.312 206.046C193.188 205.268 195.073 204.474 196.965 203.663L195.784 200.905C193.902 201.712 192.028 202.502 190.163 203.275L191.312 206.046ZM202.594 201.211C204.458 200.385 206.328 199.543 208.202 198.686L206.954 195.958C205.091 196.81 203.232 197.647 201.379 198.467L202.594 201.211ZM213.781 196.091C215.623 195.22 217.467 194.333 219.312 193.431L217.995 190.736C216.162 191.632 214.329 192.513 212.498 193.379L213.781 196.091ZM224.817 190.696C226.643 189.773 228.468 188.836 230.29 187.884L228.9 185.225C227.091 186.171 225.278 187.102 223.464 188.018L224.817 190.696ZM235.715 185C237.515 184.027 239.311 183.039 241.102 182.036L239.637 179.418C237.859 180.414 236.076 181.395 234.288 182.361L235.715 185ZM246.446 178.99C248.219 177.962 249.984 176.919 251.741 175.862L250.195 173.291C248.452 174.34 246.7 175.375 244.941 176.395L246.446 178.99ZM256.987 172.646C258.727 171.559 260.457 170.458 262.176 169.342L260.543 166.825C258.839 167.932 257.123 169.024 255.397 170.102L256.987 172.646ZM267.306 165.945C269.009 164.794 270.7 163.628 272.376 162.448L270.649 159.995C268.989 161.164 267.314 162.318 265.626 163.459L267.306 165.945ZM277.374 158.852C279.03 157.635 280.67 156.403 282.291 155.156L280.463 152.778C278.859 154.011 277.236 155.23 275.597 156.435L277.374 158.852ZM287.138 151.342C288.743 150.049 290.328 148.74 291.892 147.417L289.954 145.127C288.409 146.435 286.843 147.727 285.256 149.006L287.138 151.342ZM296.542 143.378C298.083 142.005 299.599 140.616 301.09 139.212L299.033 137.028C297.563 138.413 296.066 139.784 294.546 141.139L296.542 143.378ZM305.524 134.913C306.986 133.454 308.42 131.978 309.823 130.486L307.639 128.43C306.257 129.899 304.845 131.352 303.404 132.79L305.524 134.913ZM313.975 125.926C315.344 124.371 316.679 122.8 317.98 121.211L315.659 119.311C314.381 120.871 313.069 122.415 311.723 123.944L313.975 125.926ZM321.809 116.352C323.059 114.701 324.27 113.033 325.442 111.347L322.979 109.635C321.831 111.286 320.643 112.921 319.417 114.541L321.809 116.352ZM328.862 106.196C329.971 104.443 331.036 102.672 332.055 100.883L329.448 99.3977C328.453 101.145 327.411 102.877 326.326 104.592L328.862 106.196Z" fill="#CA0007"/>
<path d="M617 0L601.449 7.6273L615.83 17.281L617 0ZM124.261 228.477C125.215 228.309 126.178 228.137 127.148 227.963L126.617 225.01C125.65 225.184 124.69 225.355 123.739 225.523L124.261 228.477ZM133.065 226.881C135.021 226.518 137.007 226.143 139.02 225.757L138.456 222.811C136.447 223.196 134.468 223.569 132.517 223.932L133.065 226.881ZM144.895 224.615C146.867 224.227 148.864 223.828 150.884 223.419L150.289 220.478C148.273 220.886 146.282 221.284 144.315 221.672L144.895 224.615ZM156.709 222.225C158.672 221.818 160.656 221.402 162.66 220.977L162.037 218.042C160.037 218.467 158.058 218.882 156.1 219.288L156.709 222.225ZM168.519 219.72C170.462 219.298 172.422 218.869 174.399 218.431L173.75 215.502C171.777 215.939 169.821 216.367 167.883 216.788L168.519 219.72ZM180.332 217.103C182.256 216.668 184.195 216.226 186.147 215.776L185.474 212.852C183.525 213.301 181.59 213.743 179.671 214.177L180.332 217.103ZM192.049 214.403C193.989 213.948 195.942 213.485 197.909 213.015L197.211 210.097C195.249 210.566 193.299 211.028 191.363 211.483L192.049 214.403ZM203.74 211.609C205.696 211.133 207.664 210.65 209.643 210.16L208.922 207.248C206.947 207.737 204.983 208.219 203.031 208.694L203.74 211.609ZM215.452 208.711C217.387 208.224 219.331 207.731 221.285 207.231L220.541 204.324C218.591 204.823 216.651 205.315 214.72 205.801L215.452 208.711ZM227.174 205.712C229.092 205.214 231.018 204.709 232.953 204.198L232.187 201.298C230.256 201.808 228.334 202.311 226.42 202.809L227.174 205.712ZM238.775 202.649C240.721 202.127 242.675 201.599 244.636 201.065L243.847 198.17C241.89 198.703 239.94 199.23 237.998 199.751L238.775 202.649ZM250.403 199.482C252.331 198.949 254.267 198.41 256.209 197.865L255.398 194.977C253.46 195.521 251.528 196.059 249.603 196.591L250.403 199.482ZM262.043 196.215C263.956 195.67 265.875 195.12 267.798 194.564L266.965 191.682C265.045 192.237 263.131 192.786 261.222 193.33L262.043 196.215ZM273.584 192.879C275.517 192.312 277.454 191.739 279.397 191.161L278.541 188.286C276.602 188.863 274.668 189.434 272.739 190L273.584 192.879ZM285.136 189.44C287.053 188.861 288.974 188.277 290.898 187.687L290.019 184.819C288.099 185.407 286.182 185.99 284.268 186.568L285.136 189.44ZM296.682 185.902C298.589 185.31 300.499 184.712 302.411 184.109L301.509 181.247C299.6 181.849 297.694 182.446 295.792 183.038L296.682 185.902ZM308.149 182.286C310.065 181.674 311.982 181.056 313.902 180.433L312.976 177.579C311.06 178.201 309.147 178.817 307.235 179.429L308.149 182.286ZM319.62 178.564C321.523 177.937 323.427 177.306 325.333 176.669L324.383 173.824C322.481 174.459 320.581 175.089 318.682 175.714L319.62 178.564ZM331.054 174.745C332.954 174.101 334.855 173.452 336.757 172.798L335.781 169.961C333.884 170.614 331.987 171.261 330.092 171.903L331.054 174.745ZM342.444 170.829C344.34 170.167 346.236 169.501 348.133 168.83L347.132 166.002C345.24 166.671 343.347 167.336 341.456 167.996L342.444 170.829ZM353.814 166.804C355.701 166.126 357.588 165.443 359.474 164.756L358.447 161.937C356.565 162.623 354.682 163.304 352.799 163.981L353.814 166.804ZM365.132 162.678C367.017 161.981 368.901 161.278 370.783 160.571L369.728 157.763C367.85 158.468 365.971 159.169 364.091 159.864L365.132 162.678ZM376.417 158.439C378.294 157.723 380.169 157.003 382.042 156.278L380.959 153.48C379.091 154.203 377.22 154.922 375.348 155.636L376.417 158.439ZM387.657 154.087C389.528 153.351 391.396 152.611 393.262 151.866L392.15 149.08C390.289 149.823 388.425 150.561 386.559 151.295L387.657 154.087ZM398.854 149.615C400.715 148.86 402.574 148.1 404.429 147.336L403.286 144.562C401.436 145.325 399.582 146.082 397.726 146.835L398.854 149.615ZM409.999 145.022C411.854 144.244 413.706 143.462 415.555 142.675L414.38 139.915C412.537 140.7 410.69 141.479 408.84 142.254L409.999 145.022ZM421.089 140.3C422.935 139.501 424.776 138.697 426.614 137.889L425.405 135.143C423.574 135.949 421.737 136.75 419.897 137.547L421.089 140.3ZM432.131 135.44C433.966 134.618 435.796 133.792 437.621 132.961L436.378 130.231C434.559 131.059 432.735 131.883 430.906 132.701L432.131 135.44ZM443.092 130.447C444.923 129.599 446.748 128.745 448.567 127.887L447.287 125.174C445.474 126.029 443.655 126.88 441.831 127.725L443.092 130.447ZM454.008 125.296C455.817 124.427 457.62 123.553 459.417 122.674L458.098 119.979C456.308 120.855 454.512 121.726 452.709 122.592L454.008 125.296ZM464.844 119.992C466.646 119.094 468.442 118.19 470.23 117.28L468.87 114.606C467.089 115.512 465.301 116.412 463.505 117.308L464.844 119.992ZM475.572 114.538C477.369 113.606 479.158 112.67 480.938 111.728L479.535 109.076C477.762 110.014 475.981 110.947 474.192 111.874L475.572 114.538ZM486.261 108.884C488.027 107.931 489.784 106.972 491.532 106.008L490.084 103.381C488.343 104.34 486.594 105.295 484.836 106.244L486.261 108.884ZM496.823 103.06C498.582 102.07 500.331 101.073 502.071 100.072L500.574 97.472C498.843 98.4688 497.101 99.4603 495.35 100.447L496.823 103.06ZM507.26 97.0508C509.005 96.0231 510.74 94.9897 512.464 93.9508L510.915 91.3813C509.2 92.4149 507.474 93.443 505.737 94.4657L507.26 97.0508ZM517.623 90.8044C519.331 89.7499 521.028 88.6899 522.713 87.6242L521.109 85.0887C519.434 86.1485 517.746 87.2027 516.047 88.2515L517.623 90.8044ZM527.819 84.3541C529.515 83.2535 531.199 82.1471 532.87 81.0348L531.207 78.5377C529.547 79.6432 527.873 80.7431 526.186 81.8372L527.819 84.3541ZM537.841 77.6803C539.519 76.5324 541.184 75.3784 542.833 74.2183L541.107 71.7644C539.469 72.9169 537.815 74.0634 536.148 75.204L537.841 77.6803ZM547.751 70.7095C549.377 69.533 550.987 68.3503 552.581 67.1615L550.788 64.7565C549.205 65.9367 547.606 67.111 545.992 68.2794L547.751 70.7095ZM557.437 63.484C559.039 62.2516 560.623 61.0128 562.191 59.7675L560.324 57.4187C558.769 58.6541 557.197 59.8833 555.607 61.1062L557.437 63.484ZM566.871 55.986C568.446 54.6921 570.001 53.3913 571.537 52.0836L569.593 49.7993C568.07 51.0954 566.528 52.385 564.966 53.6681L566.871 55.986ZM576.087 48.1401C577.607 46.7974 579.107 45.4476 580.585 44.0907L578.557 41.8805C577.093 43.2241 575.607 44.561 574.101 45.8913L576.087 48.1401ZM585.014 39.9434C586.468 38.5537 587.9 37.1567 589.308 35.7524L587.19 33.628C585.797 35.0171 584.38 36.3993 582.941 37.7748L585.014 39.9434ZM593.578 31.3976C594.98 29.9346 596.357 28.4638 597.708 26.9853L595.494 24.9615C594.159 26.4221 592.798 27.8756 591.412 29.3218L593.578 31.3976ZM601.728 22.4752C603.066 20.9347 604.377 19.3859 605.658 17.8288L603.342 15.9225C602.078 17.4585 600.785 18.9868 599.463 20.5076L601.728 22.4752ZM609.415 13.1328C610.671 11.5167 611.896 9.89175 613.089 8.25811L610.666 6.48902C609.491 8.09792 608.284 9.69888 607.046 11.2919L609.415 13.1328Z" fill="#CA0007"/>
<path d="M0 66L13.6171 76.7039L16.0784 59.5592L0 66ZM8.67966 68.8876C10.6714 69.2456 12.6313 69.6282 14.5595 70.0347L15.1784 67.0993C13.2204 66.6865 11.2312 66.2981 9.21033 65.9349L8.67966 68.8876ZM20.3269 71.3438C22.3008 71.8245 24.2399 72.331 26.1448 72.8626L26.9511 69.973C25.0138 69.4324 23.0425 68.9174 21.0367 68.429L20.3269 71.3438ZM31.8415 74.5578C33.7585 75.1648 35.6389 75.798 37.4832 76.4564L38.4918 73.631C36.613 72.9603 34.6983 72.3156 32.7471 71.6978L31.8415 74.5578ZM43.0722 78.5715C44.9319 79.3164 46.7527 80.0879 48.5351 80.8849L49.7596 78.1462C47.9408 77.333 46.0837 76.5461 44.1876 75.7866L43.0722 78.5715ZM53.9167 83.4245C55.7191 84.3213 57.4796 85.2452 59.1991 86.1947L60.6493 83.5686C58.8922 82.5982 57.0937 81.6544 55.2531 80.7386L53.9167 83.4245ZM64.3327 89.1786C66.0362 90.22 67.6962 91.2877 69.3137 92.3801L70.9928 89.894C69.3376 88.7762 67.6395 87.684 65.8974 86.619L64.3327 89.1786ZM74.1772 95.8326C75.7829 97.03 77.343 98.253 78.8587 99.4997L80.7645 97.1828C79.2121 95.906 77.6145 94.6536 75.9707 93.4277L74.1772 95.8326ZM83.3511 103.379C84.8289 104.719 86.2602 106.083 87.6463 107.468L89.7667 105.345C88.3465 103.926 86.88 102.53 85.3661 101.157L83.3511 103.379ZM91.7445 111.767C93.0877 113.247 94.3836 114.748 95.6335 116.267L97.9505 114.362C96.6698 112.805 95.3421 111.267 93.9659 109.751L91.7445 111.767ZM99.2966 120.947C100.487 122.547 101.631 124.164 102.729 125.796L105.218 124.122C104.094 122.45 102.923 120.794 101.703 119.156L99.2966 120.947ZM105.928 130.802C106.961 132.506 107.948 134.223 108.89 135.951L111.524 134.516C110.56 132.748 109.55 130.99 108.493 129.246L105.928 130.802ZM111.614 141.231C112.489 143.025 113.318 144.827 114.103 146.635L116.855 145.44C116.052 143.592 115.205 141.75 114.31 139.916L111.614 141.231ZM116.356 152.145C117.072 154.01 117.744 155.878 118.373 157.746L121.216 156.789C120.574 154.882 119.888 152.974 119.157 151.069L116.356 152.145ZM120.156 163.427C120.717 165.348 121.234 167.266 121.709 169.177L124.62 168.453C124.135 166.503 123.608 164.547 123.036 162.587L120.156 163.427ZM123.034 174.984C123.441 176.948 123.807 178.901 124.132 180.84L127.091 180.343C126.759 178.368 126.387 176.377 125.971 174.375L123.034 174.984ZM125.006 186.734C125.263 188.73 125.478 190.705 125.655 192.656L128.643 192.386C128.463 190.398 128.243 188.384 127.981 186.35L125.006 186.734ZM126.079 198.598C126.184 200.617 126.248 202.602 126.274 204.549L129.273 204.509C129.247 202.524 129.182 200.5 129.075 198.442L126.079 198.598ZM126.233 210.495C126.178 212.529 126.082 214.511 125.947 216.433L128.94 216.642C129.077 214.677 129.176 212.653 129.232 210.576L126.233 210.495ZM125.395 222.373C125.278 223.365 125.151 224.337 125.015 225.287L127.985 225.713C128.125 224.737 128.255 223.74 128.374 222.722L125.395 222.373Z" fill="#CA0007"/>
</svg>
