<svg width="637" height="227" viewBox="0 0 637 227" fill="none" xmlns="http://www.w3.org/2000/svg">
<path d="M288.5 71.5L286.266 54.3242L272.508 64.8472L288.5 71.5ZM101.449 10.9991C103.061 11.054 104.736 11.1231 106.469 11.207L106.614 8.21054C104.868 8.1259 103.178 8.05622 101.551 8.00087L101.449 10.9991ZM116.53 11.8213C119.742 12.0555 123.09 12.3342 126.551 12.6606L126.833 9.67382C123.35 9.34552 119.981 9.06497 116.748 8.82921L116.53 11.8213ZM136.575 13.7067C139.847 14.081 143.193 14.4955 146.599 14.9524L146.998 11.979C143.572 11.5195 140.206 11.1026 136.915 10.7262L136.575 13.7067ZM156.561 16.3883C159.846 16.895 163.17 17.4407 166.52 18.0271L167.037 15.0721C163.667 14.482 160.323 13.933 157.018 13.4234L156.561 16.3883ZM176.42 19.8691C179.701 20.5163 182.994 21.2033 186.286 21.9317L186.934 19.0025C183.618 18.2689 180.303 17.5772 177.001 16.9258L176.42 19.8691ZM196.095 24.2283C199.357 25.0359 202.608 25.886 205.836 26.78L206.637 23.8888C203.381 22.9871 200.104 22.1301 196.816 21.3162L196.095 24.2283ZM215.492 29.6124C218.719 30.614 221.908 31.6626 225.05 32.7598L226.039 29.9275C222.863 28.8181 219.64 27.7586 216.382 26.7473L215.492 29.6124ZM234.463 36.2567C237.62 37.5045 240.711 38.8065 243.721 40.1645L244.955 37.4298C241.898 36.051 238.764 34.7306 235.566 33.4667L234.463 36.2567ZM252.736 44.5314C255.756 46.1048 258.668 47.7433 261.455 49.4488L263.021 46.8898C260.17 45.1455 257.198 43.4733 254.122 41.8708L252.736 44.5314ZM269.75 55.005C272.49 57.0216 275.06 59.1191 277.438 61.2997L279.466 59.0883C277 56.8284 274.347 54.6631 271.529 52.5888L269.75 55.005Z" fill="#CA0007"/>
<path d="M231.5 223.5L242.353 210.001L225.236 207.352L231.5 223.5ZM99.0719 10.9376C100.578 11.3861 102.123 11.8747 103.704 12.4039L104.657 9.55902C103.045 9.01945 101.467 8.5207 99.9281 8.0624L99.0719 10.9376ZM112.838 15.7687C115.756 16.9389 118.755 18.2311 121.817 19.6478L123.077 16.9251C119.969 15.4869 116.921 14.174 113.955 12.9843L112.838 15.7687ZM130.576 23.9633C133.404 25.4416 136.265 27.0211 139.146 28.7033L140.659 26.1127C137.737 24.4066 134.835 22.8045 131.966 21.3048L130.576 23.9633ZM147.458 33.8173C150.152 35.5617 152.851 37.3957 155.543 39.3206L157.288 36.8803C154.558 34.928 151.821 33.068 149.088 31.299L147.458 33.8173ZM163.372 45.1997C165.898 47.1912 168.407 49.2652 170.891 51.4228L172.858 49.1582C170.338 46.9686 167.792 44.8642 165.229 42.8439L163.372 45.1997ZM178.105 58.0066C180.435 60.2402 182.731 62.5519 184.986 64.9429L187.168 62.8847C184.878 60.4562 182.546 58.1087 180.181 55.8411L178.105 58.0066ZM191.504 72.2226C193.595 74.685 195.64 77.2222 197.629 79.8351L200.016 78.0177C197.993 75.3614 195.915 72.7826 193.79 70.2804L191.504 72.2226ZM203.327 87.7576C205.138 90.4264 206.89 93.1667 208.576 95.9792L211.149 94.4364C209.434 91.5751 207.651 88.7877 205.81 86.0735L203.327 87.7576ZM213.354 104.484C214.851 107.336 216.28 110.257 217.636 113.247L220.369 112.008C218.989 108.965 217.533 105.993 216.01 103.089L213.354 104.484ZM221.407 122.243C222.564 125.245 223.648 128.311 224.652 131.442L227.509 130.526C226.487 127.339 225.384 124.219 224.206 121.164L221.407 122.243ZM227.365 140.813C228.17 143.923 228.898 147.093 229.544 150.323L232.485 149.735C231.829 146.45 231.088 143.225 230.269 140.061L227.365 140.813ZM231.193 159.943C231.649 163.12 232.026 166.353 232.322 169.641L235.31 169.373C235.01 166.032 234.626 162.746 234.162 159.516L231.193 159.943ZM232.945 179.393C233.068 182.603 233.114 185.864 233.079 189.175L236.079 189.207C236.115 185.847 236.068 182.537 235.943 179.277L232.945 179.393ZM232.745 198.961C232.562 202.154 232.305 205.393 231.971 208.677L234.955 208.981C235.294 205.653 235.555 202.371 235.741 199.132L232.745 198.961Z" fill="#CA0007"/>
<path d="M636 160L636.292 142.682L621.148 151.088L636 160ZM101.191 10.7426C102.799 10.5361 104.427 10.3325 106.077 10.132L105.715 7.15395C104.059 7.35522 102.423 7.55967 100.809 7.76711L101.191 10.7426ZM116.138 8.97718C119.393 8.62494 122.717 8.2853 126.106 7.95959L125.819 4.97335C122.418 5.30019 119.082 5.64105 115.815 5.99459L116.138 8.97718ZM136.103 7.05637C139.415 6.77585 142.781 6.50887 146.199 6.25657L145.979 3.26471C142.549 3.5178 139.172 3.78563 135.85 4.06708L136.103 7.05637ZM156.191 5.57113C159.498 5.36125 162.849 5.16532 166.24 4.98429L166.08 1.98856C162.679 2.17012 159.318 2.36664 156.001 2.57715L156.191 5.57113ZM176.331 4.4955C179.634 4.35176 182.972 4.22237 186.341 4.10813L186.24 1.10985C182.86 1.22442 179.513 1.35418 176.201 1.49834L176.331 4.4955ZM196.455 3.81383C199.767 3.73334 203.106 3.6677 206.472 3.61765L206.427 0.617987C203.052 0.668174 199.703 0.733994 196.383 0.814716L196.455 3.81383ZM216.56 3.51545C219.888 3.49751 223.239 3.49506 226.611 3.50878L226.623 0.508809C223.242 0.49505 219.882 0.497504 216.544 0.515495L216.56 3.51545ZM236.68 3.59767C240.018 3.64306 243.374 3.70456 246.746 3.78282L246.816 0.783628C243.434 0.705145 240.068 0.643463 236.721 0.597948L236.68 3.59767ZM256.801 4.06484C260.143 4.17486 263.5 4.30165 266.869 4.4458L266.997 1.44855C263.618 1.30397 260.252 1.17681 256.899 1.06646L256.801 4.06484ZM276.91 4.92554C280.254 5.10208 283.608 5.29607 286.971 5.50807L287.159 2.51401C283.786 2.30136 280.422 2.10679 277.068 1.92971L276.91 4.92554ZM296.998 6.19235C300.34 6.43788 303.688 6.70157 307.042 6.98398L307.294 3.99456C303.929 3.71124 300.57 3.44671 297.218 3.20042L296.998 6.19235ZM317.055 7.88172C320.391 8.1993 323.732 8.53585 327.075 8.89189L327.392 5.90876C324.038 5.55151 320.686 5.21385 317.339 4.89522L317.055 7.88172ZM337.067 10.014C340.396 10.4074 343.726 10.8206 347.056 11.2541L347.443 8.27925C344.102 7.84413 340.76 7.42946 337.419 7.03472L337.067 10.014ZM357.021 12.6136C360.341 13.0872 363.658 13.5816 366.971 14.0972L367.433 11.1329C364.106 10.6153 360.777 10.119 357.445 9.64365L357.021 12.6136ZM376.902 15.7092C380.208 16.2682 383.509 16.849 386.804 17.4523L387.344 14.5013C384.036 13.8956 380.722 13.3124 377.402 12.7512L376.902 15.7092ZM396.69 19.3342C399.979 19.9846 403.261 20.6581 406.532 21.355L407.157 18.4209C403.871 17.7208 400.575 17.0444 397.272 16.3912L396.69 19.3342ZM416.362 23.5273C419.63 24.2759 422.886 25.0489 426.131 25.8468L426.847 22.9336C423.587 22.1318 420.315 21.3552 417.032 20.603L416.362 23.5273ZM435.888 28.3324C439.129 29.1871 442.356 30.0676 445.566 30.9743L446.382 28.0873C443.154 27.1757 439.911 26.2906 436.653 25.4316L435.888 28.3324ZM455.234 33.7999C458.441 34.7695 461.631 35.7664 464.801 36.7913L465.724 33.9368C462.535 32.9059 459.327 31.9033 456.102 30.9283L455.234 33.7999ZM474.356 39.9865C477.524 41.0817 480.67 42.2062 483.793 43.3604L484.833 40.5465C481.69 39.3848 478.523 38.2532 475.336 37.1512L474.356 39.9865ZM493.198 46.9556C496.317 48.1882 499.41 49.452 502.476 50.7477L503.644 47.9844C500.556 46.6793 497.441 45.4066 494.301 44.1656L493.198 46.9556ZM511.692 54.777C514.75 56.1598 517.778 57.5761 520.774 59.0265L522.081 56.3263C519.061 54.8642 516.01 53.4369 512.929 52.0435L511.692 54.777ZM529.753 63.5264C532.734 65.0729 535.681 66.6555 538.591 68.2746L540.049 65.6532C537.113 64.0194 534.141 62.4231 531.135 60.8634L529.753 63.5264ZM547.274 73.2823C550.159 75.0064 553.004 76.7691 555.807 78.5712L557.429 76.0477C554.598 74.2276 551.726 72.4476 548.813 70.7072L547.274 73.2823ZM564.127 84.1235C566.891 86.0378 569.609 87.9936 572.279 89.9915L574.076 87.5894C571.376 85.5691 568.628 83.5921 565.835 81.6574L564.127 84.1235ZM580.169 96.1315C582.777 98.2432 585.334 100.399 587.838 102.599L589.818 100.346C587.283 98.1182 584.695 95.9365 582.057 93.8L580.169 96.1315ZM595.212 109.36C597.629 111.672 599.99 114.031 602.292 116.437L604.459 114.363C602.126 111.925 599.734 109.535 597.286 107.192L595.212 109.36ZM609.042 123.823C611.235 126.337 613.368 128.9 615.436 131.513L617.788 129.65C615.69 127 613.527 124.4 611.303 121.851L609.042 123.823ZM621.45 139.5C623.387 142.209 625.258 144.969 627.062 147.779L629.586 146.158C627.756 143.305 625.856 140.505 623.89 137.756L621.45 139.5Z" fill="#CA0007"/>
<path d="M0 225L17.2894 226.038L9.54348 210.546L0 225ZM14.1026 219.288C17.0763 217.608 19.9655 215.893 22.772 214.145L21.1858 211.598C18.4162 213.324 15.564 215.017 12.6273 216.676L14.1026 219.288ZM31.2099 208.621C34.0339 206.679 36.7657 204.701 39.4077 202.69L37.591 200.303C34.9875 202.284 32.2946 204.234 29.5097 206.15L31.2099 208.621ZM47.3035 196.365C49.9209 194.157 52.4396 191.915 54.8625 189.643L52.8104 187.455C50.426 189.691 47.9466 191.897 45.3691 194.072L47.3035 196.365ZM62.0508 182.527C64.4149 180.055 66.6747 177.553 68.8339 175.024L66.5527 173.076C64.43 175.562 62.2078 178.022 59.8826 180.454L62.0508 182.527ZM75.1796 167.147C77.2489 164.42 79.2097 161.67 81.0665 158.899L78.5744 157.229C76.7502 159.951 74.8235 162.654 72.7899 165.333L75.1796 167.147ZM86.4551 150.319C88.1857 147.372 89.8064 144.41 91.3222 141.436L88.6495 140.074C87.1605 142.995 85.5684 145.905 83.8682 148.8L86.4551 150.319ZM95.6503 132.285C97.0165 129.16 98.2736 126.029 99.4276 122.9L96.6129 121.862C95.4789 124.937 94.2437 128.013 92.9015 131.083L95.6503 132.285ZM102.65 113.312C103.644 110.043 104.532 106.782 105.32 103.537L102.404 102.829C101.63 106.02 100.757 109.226 99.7795 112.439L102.65 113.312ZM107.43 93.6379C108.048 90.2818 108.564 86.951 108.985 83.654L106.01 83.2735C105.595 86.5172 105.087 89.7936 104.479 93.0946L107.43 93.6379ZM109.997 73.573C110.247 70.1541 110.4 66.7829 110.464 63.4691L107.465 63.4108C107.401 66.6721 107.251 69.9898 107.005 73.3542L109.997 73.573ZM110.39 53.3539C110.273 49.9029 110.063 46.5313 109.772 43.2518L106.784 43.5165C107.07 46.7426 107.276 50.06 107.392 53.4561L110.39 53.3539ZM108.597 33.1926C108.093 29.7353 107.503 26.4108 106.842 23.2372L103.905 23.8485C104.553 26.9623 105.133 30.2272 105.628 33.6253L108.597 33.1926ZM104.447 13.3932C103.974 11.713 103.483 10.0927 102.977 8.5361L100.124 9.4639C100.617 10.981 101.097 12.5627 101.559 14.2054L104.447 13.3932Z" fill="#CA0007"/>
</svg>
